# xmcd CD database file
#
# Track frame offsets:
#	150
#	2767
#	20305
#	38837
#	57965
#	77500
#	97917
#	110065
#	126947
#	141565
#	161365
#	190305
#	210737
#
# Disc length: 2949 seconds
#
# Revision: 0
# Processed by: cddbd v1.5PL3 Copyright (c) Steve Scherf et al.
# Submitted via: CDex 1.51
#
DISCID=aa0b830d
DTITLE=Pino Daniele - Dimmi cosa succede sulla Terra
DYEAR=1997
DGENRE=Blues
TTITLE0=Il pianeta delle parole
TTITLE1=Continueremo a navigare
TTITLE2=Che male c'è
TTITLE3=Dubbi non ho
TTITLE4=La mia emozione più forte
TTITLE5=Scirocco d'Africa
TTITLE6=Amici come prima
TTITLE7=Non ho paura del mostro
TTITLE8=Stare bene a metà
TTITLE9=The desert in my head
TTITLE10=Se domani pioverà
TTITLE11=Canto do mar
TTITLE12=Questo immenso
EXTD=YEAR: 1997
EXTT0=
EXTT1=
EXTT2=
EXTT3=
EXTT4=
EXTT5=
EXTT6=
EXTT7=
EXTT8=
EXTT9=
EXTT10=
EXTT11=
EXTT12=
PLAYORDER=
